<svg width="126" height="60" viewBox="0 0 126 60" fill="none" xmlns="http://www.w3.org/2000/svg">
<path d="M28.0672 1.43229C37.4671 1.43229 45.7376 6.30648 50.4754 13.669H52.143C47.2291 5.49342 38.274 0 28.0672 0C12.5856 0 0 12.6041 0 28.0846C0 43.5402 12.5856 56.1383 28.0672 56.1383C35.9835 56.1383 43.1371 52.8462 48.2379 47.5665H46.2259C41.467 52.001 35.0798 54.7097 28.0672 54.7097C13.3591 54.7097 1.43357 42.7914 1.43357 28.0846C1.43357 13.3689 13.3591 1.43229 28.0672 1.43229Z" fill="#EDA800"/>
<path d="M50.3797 47.5668C45.7213 54.2174 37.9902 58.5859 29.2514 58.5859C14.9943 58.5859 3.44497 47.0178 3.44497 32.781C3.44497 18.519 14.9943 6.96883 29.2514 6.96883C35.9232 6.96883 42.0169 9.50708 46.5994 13.6694H48.6425C43.6988 8.65379 36.8289 5.53906 29.2514 5.53906C14.2399 5.53906 2.01562 17.7512 2.01562 32.781C2.01562 47.7832 14.2399 60.0004 29.2514 60.0004C38.8155 60.0004 47.2352 55.0395 52.1009 47.5668H50.3797Z" fill="#EDA800"/>
<path d="M58.1168 47.7098C58.1776 47.7098 58.2081 47.7403 58.2081 47.8011V48.3855C58.2081 48.4463 58.1776 48.4768 58.1168 48.4768H56.6465C56.6222 48.4768 56.61 48.4891 56.61 48.5133V54.0106C56.61 54.0714 56.5794 54.1019 56.5186 54.1019H55.8246C55.7638 54.1019 55.7333 54.0714 55.7333 54.0106V48.5133C55.7333 48.4891 55.7211 48.4768 55.6968 48.4768H54.2905C54.2297 48.4768 54.1992 48.4463 54.1992 48.3855V47.8011C54.1992 47.7403 54.2297 47.7098 54.2905 47.7098H58.1168ZM64.3065 48.3763C64.3065 48.4373 64.276 48.4676 64.2152 48.4676H61.567C61.5425 48.4676 61.5305 48.4798 61.5305 48.5041V50.4765C61.5305 50.501 61.5425 50.5131 61.567 50.5131H63.311C63.3718 50.5131 63.4023 50.5436 63.4023 50.6044V51.1798C63.4023 51.2406 63.3718 51.2711 63.311 51.2711H61.567C61.5425 51.2711 61.5305 51.2833 61.5305 51.3076V53.3073C61.5305 53.3318 61.5425 53.3438 61.567 53.3438H64.2152C64.276 53.3438 64.3065 53.3743 64.3065 53.4352V54.0106C64.3065 54.0714 64.276 54.1019 64.2152 54.1019H60.7452C60.6841 54.1019 60.6538 54.0714 60.6538 54.0106V47.8011C60.6538 47.7403 60.6841 47.7098 60.7452 47.7098H64.2152C64.276 47.7098 64.3065 47.7403 64.3065 47.8011V48.3763ZM68.6224 54.1749C68.2388 54.1749 67.8979 54.0989 67.5996 53.9465C67.3074 53.7884 67.0792 53.5692 66.9149 53.289C66.7565 53.0031 66.6775 52.6743 66.6775 52.3028V49.4996C66.6775 48.9334 66.8539 48.4828 67.2071 48.1481C67.5661 47.8071 68.038 47.6367 68.6224 47.6367C69.2068 47.6367 69.6756 47.8041 70.0286 48.1388C70.3816 48.4738 70.5583 48.9181 70.5583 49.4721V49.5451C70.5583 49.5756 70.5492 49.5999 70.531 49.6182C70.5127 49.6364 70.4912 49.6457 70.4669 49.6457L69.7729 49.6822C69.7121 49.6822 69.6816 49.6517 69.6816 49.5909V49.4538C69.6816 49.1373 69.5843 48.8816 69.3894 48.6867C69.1945 48.4921 68.9389 48.3947 68.6224 48.3947C68.3059 48.3947 68.0472 48.4921 67.8463 48.6867C67.6514 48.8816 67.5541 49.1373 67.5541 49.4538V52.3576C67.5541 52.6743 67.6514 52.93 67.8463 53.1247C68.0472 53.3196 68.3059 53.4169 68.6224 53.4169C68.9389 53.4169 69.1945 53.3196 69.3894 53.1247C69.5843 52.93 69.6816 52.6743 69.6816 52.3576V52.2298C69.6816 52.169 69.7121 52.1385 69.7729 52.1385L70.4669 52.175C70.5278 52.175 70.5583 52.2055 70.5583 52.2663V52.3303C70.5583 52.6956 70.4762 53.0183 70.3118 53.2983C70.1535 53.5783 69.9283 53.7944 69.6361 53.9465C69.3439 54.0989 69.0059 54.1749 68.6224 54.1749ZM76.0946 47.8011C76.0946 47.7403 76.1249 47.7098 76.1859 47.7098H76.8799C76.9407 47.7098 76.9712 47.7403 76.9712 47.8011V54.0106C76.9712 54.0714 76.9407 54.1019 76.8799 54.1019H76.1859C76.1249 54.1019 76.0946 54.0714 76.0946 54.0106V51.3076C76.0946 51.2833 76.0823 51.2711 76.058 51.2711H74.0674C74.0429 51.2711 74.0308 51.2833 74.0308 51.3076V54.0106C74.0308 54.0714 74.0003 54.1019 73.9395 54.1019H73.2455C73.1845 54.1019 73.1542 54.0714 73.1542 54.0106V47.8011C73.1542 47.7403 73.1845 47.7098 73.2455 47.7098H73.9395C74.0003 47.7098 74.0308 47.7403 74.0308 47.8011V50.4765C74.0308 50.501 74.0429 50.5131 74.0674 50.5131H76.058C76.0823 50.5131 76.0946 50.501 76.0946 50.4765V47.8011ZM82.885 47.8011C82.885 47.7403 82.9155 47.7098 82.9763 47.7098H83.6703C83.7314 47.7098 83.7617 47.7403 83.7617 47.8011V54.0106C83.7617 54.0714 83.7314 54.1019 83.6703 54.1019H82.9398C82.885 54.1019 82.8485 54.0806 82.8302 54.0378L80.6296 49.6091C80.6174 49.5969 80.6054 49.5909 80.5931 49.5909C80.5871 49.5909 80.5839 49.5999 80.5839 49.6182L80.5931 54.0106C80.5931 54.0714 80.5626 54.1019 80.5018 54.1019H79.8078C79.747 54.1019 79.7165 54.0714 79.7165 54.0106V47.8011C79.7165 47.7403 79.747 47.7098 79.8078 47.7098H80.5383C80.5931 47.7098 80.6296 47.731 80.6479 47.7736L82.8395 52.2025C82.8517 52.2148 82.8607 52.2208 82.8668 52.2208C82.879 52.2208 82.885 52.2115 82.885 52.1933V47.8011ZM88.3633 54.1842C87.9736 54.1842 87.6298 54.1049 87.3313 53.9465C87.0391 53.7822 86.811 53.554 86.6466 53.2618C86.4822 52.9696 86.3999 52.6316 86.3999 52.2481V49.5634C86.3999 49.1861 86.4822 48.8511 86.6466 48.5589C86.811 48.2667 87.0391 48.0415 87.3313 47.8832C87.6298 47.7188 87.9736 47.6367 88.3633 47.6367C88.7529 47.6367 89.0968 47.7188 89.3951 47.8832C89.6935 48.0415 89.9247 48.2667 90.0891 48.5589C90.2534 48.8511 90.3357 49.1861 90.3357 49.5634V52.2481C90.3357 52.6316 90.2534 52.9696 90.0891 53.2618C89.9247 53.554 89.6935 53.7822 89.3951 53.9465C89.0968 54.1049 88.7529 54.1842 88.3633 54.1842ZM88.3633 53.4169C88.6921 53.4169 88.9568 53.3135 89.1577 53.1064C89.3586 52.8995 89.4591 52.6256 89.4591 52.2846V49.5451C89.4591 49.2043 89.3586 48.9274 89.1577 48.7142C88.9568 48.5011 88.6921 48.3947 88.3633 48.3947C88.0406 48.3947 87.7789 48.5011 87.578 48.7142C87.3771 48.9274 87.2766 49.2043 87.2766 49.5451V52.2846C87.2766 52.6195 87.3771 52.8935 87.578 53.1064C87.7789 53.3135 88.0406 53.4169 88.3633 53.4169ZM93.075 54.1019C93.0142 54.1019 92.9837 54.0714 92.9837 54.0106V47.8011C92.9837 47.7403 93.0142 47.7098 93.075 47.7098H93.769C93.83 47.7098 93.8603 47.7403 93.8603 47.8011V53.3073C93.8603 53.3318 93.8726 53.3438 93.8968 53.3438H96.4902C96.5512 53.3438 96.5815 53.3743 96.5815 53.4352V54.0106C96.5815 54.0714 96.5512 54.1019 96.4902 54.1019H93.075ZM100.694 54.1842C100.305 54.1842 99.9606 54.1049 99.6624 53.9465C99.3702 53.7822 99.1418 53.554 98.9774 53.2618C98.8131 52.9696 98.731 52.6316 98.731 52.2481V49.5634C98.731 49.1861 98.8131 48.8511 98.9774 48.5589C99.1418 48.2667 99.3702 48.0415 99.6624 47.8832C99.9606 47.7188 100.305 47.6367 100.694 47.6367C101.084 47.6367 101.428 47.7188 101.726 47.8832C102.024 48.0415 102.256 48.2667 102.42 48.5589C102.585 48.8511 102.667 49.1861 102.667 49.5634V52.2481C102.667 52.6316 102.585 52.9696 102.42 53.2618C102.256 53.554 102.024 53.7822 101.726 53.9465C101.428 54.1049 101.084 54.1842 100.694 54.1842ZM100.694 53.4169C101.023 53.4169 101.288 53.3135 101.489 53.1064C101.69 52.8995 101.79 52.6256 101.79 52.2846V49.5451C101.79 49.2043 101.69 48.9274 101.489 48.7142C101.288 48.5011 101.023 48.3947 100.694 48.3947C100.372 48.3947 100.11 48.5011 99.9088 48.7142C99.7079 48.9274 99.6076 49.2043 99.6076 49.5451V52.2846C99.6076 52.6195 99.7079 52.8935 99.9088 53.1064C100.11 53.3135 100.372 53.4169 100.694 53.4169ZM107.095 54.1749C106.517 54.1749 106.051 54.0075 105.698 53.6726C105.345 53.3318 105.169 52.8843 105.169 52.3303V49.4813C105.169 48.9274 105.345 48.4828 105.698 48.1481C106.051 47.8071 106.517 47.6367 107.095 47.6367C107.479 47.6367 107.817 47.7128 108.109 47.8649C108.401 48.011 108.626 48.2211 108.785 48.4951C108.949 48.769 109.031 49.0795 109.031 49.4265V49.673C109.031 49.734 109.001 49.7643 108.94 49.7643H108.246C108.185 49.7643 108.155 49.734 108.155 49.673V49.4265C108.155 49.122 108.057 48.8756 107.863 48.6867C107.674 48.4921 107.418 48.3947 107.095 48.3947C106.779 48.3947 106.523 48.4951 106.328 48.696C106.134 48.8909 106.036 49.1465 106.036 49.463V52.3486C106.036 52.6651 106.134 52.9238 106.328 53.1247C106.529 53.3196 106.791 53.4169 107.114 53.4169C107.43 53.4169 107.683 53.3256 107.872 53.1429C108.06 52.9603 108.155 52.7139 108.155 52.4034V51.5541C108.155 51.5298 108.143 51.5175 108.118 51.5175H107.159C107.099 51.5175 107.068 51.4872 107.068 51.4262V50.8601C107.068 50.7992 107.099 50.7687 107.159 50.7687H108.94C109.001 50.7687 109.031 50.7992 109.031 50.8601V52.2846C109.031 52.8752 108.855 53.3378 108.502 53.6726C108.155 54.0075 107.686 54.1749 107.095 54.1749ZM111.772 54.1019C111.711 54.1019 111.681 54.0714 111.681 54.0106V47.8011C111.681 47.7403 111.711 47.7098 111.772 47.7098H112.466C112.527 47.7098 112.557 47.7403 112.557 47.8011V54.0106C112.557 54.0714 112.527 54.1019 112.466 54.1019H111.772ZM119.007 48.3763C119.007 48.4373 118.976 48.4676 118.915 48.4676H116.267C116.243 48.4676 116.231 48.4798 116.231 48.5041V50.4765C116.231 50.501 116.243 50.5131 116.267 50.5131H118.011C118.072 50.5131 118.103 50.5436 118.103 50.6044V51.1798C118.103 51.2406 118.072 51.2711 118.011 51.2711H116.267C116.243 51.2711 116.231 51.2833 116.231 51.3076V53.3073C116.231 53.3318 116.243 53.3438 116.267 53.3438H118.915C118.976 53.3438 119.007 53.3743 119.007 53.4352V54.0106C119.007 54.0714 118.976 54.1019 118.915 54.1019H115.445C115.384 54.1019 115.354 54.0714 115.354 54.0106V47.8011C115.354 47.7403 115.384 47.7098 115.445 47.7098H118.915C118.976 47.7098 119.007 47.7403 119.007 47.8011V48.3763ZM123.213 54.1749C122.823 54.1749 122.48 54.1049 122.181 53.9648C121.889 53.8187 121.661 53.6178 121.496 53.3621C121.338 53.1064 121.259 52.8082 121.259 52.4672V52.2208C121.259 52.16 121.289 52.1294 121.35 52.1294H122.026C122.087 52.1294 122.117 52.16 122.117 52.2208V52.4217C122.117 52.7199 122.218 52.9603 122.418 53.1429C122.626 53.3256 122.903 53.4169 123.25 53.4169C123.56 53.4169 123.803 53.3348 123.98 53.1704C124.163 53.0001 124.254 52.7777 124.254 52.5037C124.254 52.3211 124.208 52.163 124.117 52.0289C124.026 51.895 123.892 51.7702 123.715 51.6546C123.545 51.539 123.295 51.3929 122.966 51.2163C122.595 51.0214 122.297 50.848 122.071 50.6957C121.852 50.5436 121.67 50.3519 121.524 50.1205C121.377 49.8891 121.304 49.6091 121.304 49.2804C121.304 48.769 121.472 48.3672 121.807 48.075C122.142 47.7828 122.586 47.6367 123.14 47.6367C123.524 47.6367 123.861 47.7098 124.153 47.8559C124.446 48.002 124.671 48.2089 124.829 48.4768C124.994 48.7385 125.076 49.043 125.076 49.39V49.5999C125.076 49.6609 125.045 49.6912 124.985 49.6912H124.3C124.239 49.6912 124.208 49.6609 124.208 49.5999V49.4082C124.208 49.11 124.111 48.8664 123.916 48.6777C123.721 48.4891 123.456 48.3947 123.122 48.3947C122.823 48.3947 122.589 48.4708 122.418 48.6229C122.254 48.775 122.172 48.9912 122.172 49.2712C122.172 49.4538 122.212 49.6091 122.291 49.737C122.376 49.8648 122.504 49.9866 122.674 50.1022C122.845 50.2118 123.097 50.3519 123.432 50.5223C123.852 50.7597 124.169 50.9546 124.382 51.1067C124.601 51.2588 124.777 51.4445 124.912 51.6636C125.051 51.8828 125.121 52.1477 125.121 52.4582C125.121 52.9818 124.948 53.3986 124.601 53.7091C124.26 54.0196 123.797 54.1749 123.213 54.1749Z" fill="white"/>
<path d="M38.0531 23.9229C38.0531 24.0948 37.9671 24.1808 37.7953 24.1808H29.8798C29.811 24.1808 29.7767 24.2152 29.7767 24.2839V31.2712C29.7767 31.3399 29.811 31.3743 29.8798 31.3743H35.2943C35.4662 31.3743 35.5521 31.4602 35.5521 31.6321V32.3283C35.5521 32.5002 35.4662 32.5861 35.2943 32.5861H29.8798C29.811 32.5861 29.7767 32.6205 29.7767 32.6892V39.7023C29.7767 39.771 29.811 39.8054 29.8798 39.8054H37.7953C37.9671 39.8054 38.0531 39.8914 38.0531 40.0633V40.7594C38.0531 40.9313 37.9671 41.0172 37.7953 41.0172H28.668C28.4961 41.0172 28.4102 40.9313 28.4102 40.7594V23.2268C28.4102 23.0549 28.4961 22.969 28.668 22.969H37.7953C37.9671 22.969 38.0531 23.0549 38.0531 23.2268V23.9229ZM50.7786 23.2268C50.7786 23.0549 50.8646 22.969 51.0365 22.969H51.8873C52.0592 22.969 52.1451 23.0549 52.1451 23.2268V40.7594C52.1451 40.9313 52.0592 41.0172 51.8873 41.0172H50.9591C50.8044 41.0172 50.7013 40.9571 50.6497 40.8368L43.2499 26.0372C43.2155 26.0028 43.1812 25.9942 43.1468 26.0114C43.1296 26.0114 43.121 26.0372 43.121 26.0887V40.7594C43.121 40.9313 43.0351 41.0172 42.8632 41.0172H42.0123C41.8404 41.0172 41.7545 40.9313 41.7545 40.7594V23.2268C41.7545 23.0549 41.8404 22.969 42.0123 22.969H42.9405C43.0952 22.969 43.1984 23.0291 43.2499 23.1494L50.6497 37.8975C50.6841 37.9318 50.7099 37.949 50.7271 37.949C50.7614 37.9318 50.7786 37.8975 50.7786 37.8459V23.2268ZM61.3236 41.2235C59.8109 41.2235 58.5905 40.7766 57.6623 39.8828C56.7513 38.9718 56.2958 37.7771 56.2958 36.2989V27.6615C56.2958 26.1833 56.7513 24.9972 57.6623 24.1034C58.5905 23.2096 59.8109 22.7627 61.3236 22.7627C62.8534 22.7627 64.0738 23.2096 64.9848 24.1034C65.913 24.9972 66.3771 26.1747 66.3771 27.6357V27.8678C66.3771 27.9537 66.3513 28.0225 66.2997 28.074C66.2482 28.1256 66.188 28.1514 66.1192 28.1514L65.2684 28.203C65.0965 28.203 65.0106 28.117 65.0106 27.9451V27.5842C65.0106 26.5013 64.6668 25.6332 63.9792 24.9801C63.3089 24.3097 62.4236 23.9745 61.3236 23.9745C60.2235 23.9745 59.3382 24.3097 58.6679 24.9801C57.9975 25.6332 57.6623 26.5013 57.6623 27.5842V36.3763C57.6623 37.4763 57.9975 38.3616 58.6679 39.0319C59.3382 39.6851 60.2235 40.0117 61.3236 40.0117C62.4408 40.0117 63.3346 39.6851 64.005 39.0319C64.6754 38.3616 65.0106 37.4763 65.0106 36.3763V36.0669C65.0106 35.895 65.0965 35.809 65.2684 35.809L66.1192 35.8606C66.2911 35.8606 66.3771 35.9465 66.3771 36.1184V36.3247C66.3771 37.8029 65.913 38.989 64.9848 39.8828C64.0738 40.7766 62.8534 41.2235 61.3236 41.2235ZM70.6161 41.0172C70.4442 41.0172 70.3582 40.9313 70.3582 40.7594V23.2268C70.3582 23.0549 70.4442 22.969 70.6161 22.969H71.4669C71.6388 22.969 71.7247 23.0549 71.7247 23.2268V40.7594C71.7247 40.9313 71.6388 41.0172 71.4669 41.0172H70.6161ZM85.348 41.0172C85.2104 41.0172 85.1159 40.9485 85.0643 40.811L81.6867 32.6377C81.6695 32.5861 81.6352 32.5603 81.5836 32.5603H77.8708C77.8021 32.5603 77.7677 32.5947 77.7677 32.6635V40.7594C77.7677 40.9313 77.6817 41.0172 77.5098 41.0172H76.659C76.4871 41.0172 76.4012 40.9313 76.4012 40.7594V23.2268C76.4012 23.0549 76.4871 22.969 76.659 22.969H81.893C83.2165 22.969 84.2822 23.4159 85.0901 24.3097C85.9152 25.2035 86.3277 26.3723 86.3277 27.8162C86.3277 29.0194 86.0355 30.0336 85.4511 30.8586C84.8667 31.6665 84.0674 32.1908 83.0532 32.4314C82.9845 32.4658 82.9673 32.5088 83.0017 32.5603L86.4309 40.7078L86.4566 40.811C86.4566 40.9485 86.3793 41.0172 86.2246 41.0172H85.348ZM77.8708 24.1808C77.8021 24.1808 77.7677 24.2152 77.7677 24.2839V31.3227C77.7677 31.3915 77.8021 31.4259 77.8708 31.4259H81.7641C82.7267 31.4259 83.5002 31.0993 84.0846 30.4461C84.669 29.7757 84.9612 28.8991 84.9612 27.8162C84.9612 26.7333 84.6604 25.8567 84.0588 25.1863C83.4744 24.516 82.7095 24.1808 81.7641 24.1808H77.8708ZM94.4086 41.2235C92.896 41.2235 91.6756 40.7766 90.7474 39.8828C89.8364 38.9718 89.3809 37.7771 89.3809 36.2989V27.6615C89.3809 26.1833 89.8364 24.9972 90.7474 24.1034C91.6756 23.2096 92.896 22.7627 94.4086 22.7627C95.9384 22.7627 97.1588 23.2096 98.0698 24.1034C98.998 24.9972 99.4621 26.1747 99.4621 27.6357V27.8678C99.4621 27.9537 99.4364 28.0225 99.3848 28.074C99.3332 28.1256 99.2731 28.1514 99.2043 28.1514L98.3535 28.203C98.1816 28.203 98.0956 28.117 98.0956 27.9451V27.5842C98.0956 26.5013 97.7519 25.6332 97.0643 24.9801C96.3939 24.3097 95.5087 23.9745 94.4086 23.9745C93.3085 23.9745 92.4233 24.3097 91.7529 24.9801C91.0826 25.6332 90.7474 26.5013 90.7474 27.5842V36.3763C90.7474 37.4763 91.0826 38.3616 91.7529 39.0319C92.4233 39.6851 93.3085 40.0117 94.4086 40.0117C95.5259 40.0117 96.4197 39.6851 97.0901 39.0319C97.7604 38.3616 98.0956 37.4763 98.0956 36.3763V36.0669C98.0956 35.895 98.1816 35.809 98.3535 35.809L99.2043 35.8606C99.3762 35.8606 99.4621 35.9465 99.4621 36.1184V36.3247C99.4621 37.8029 98.998 38.989 98.0698 39.8828C97.1588 40.7766 95.9384 41.2235 94.4086 41.2235ZM103.701 41.0172C103.529 41.0172 103.444 40.9313 103.444 40.7594V23.2268C103.444 23.0549 103.529 22.969 103.701 22.969H104.552C104.724 22.969 104.81 23.0549 104.81 23.2268V39.7023C104.81 39.771 104.844 39.8054 104.913 39.8054H112.545C112.717 39.8054 112.803 39.8914 112.803 40.0633V40.7594C112.803 40.9313 112.717 41.0172 112.545 41.0172H103.701ZM125.399 23.9229C125.399 24.0948 125.313 24.1808 125.141 24.1808H117.226C117.157 24.1808 117.122 24.2152 117.122 24.2839V31.2712C117.122 31.3399 117.157 31.3743 117.226 31.3743H122.64C122.812 31.3743 122.898 31.4602 122.898 31.6321V32.3283C122.898 32.5002 122.812 32.5861 122.64 32.5861H117.226C117.157 32.5861 117.122 32.6205 117.122 32.6892V39.7023C117.122 39.771 117.157 39.8054 117.226 39.8054H125.141C125.313 39.8054 125.399 39.8914 125.399 40.0633V40.7594C125.399 40.9313 125.313 41.0172 125.141 41.0172H116.014C115.842 41.0172 115.756 40.9313 115.756 40.7594V23.2268C115.756 23.0549 115.842 22.969 116.014 22.969H125.141C125.313 22.969 125.399 23.0549 125.399 23.2268V23.9229Z" fill="white"/>
</svg>
